{
.appVersion = "3219";
.formatVersion = 3;
DisplayStrings = (
g,
w,
z,
y
);
date = "2023-10-16 11:25:55 +0000";
familyName = VER;
fontMaster = (
{
id = m01;
metricValues = (
{
over = 16;
pos = 800;
},
{
over = 16;
pos = 700;
},
{
over = 16;
pos = 500;
},
{
over = -16;
},
{
over = -16;
pos = -200;
},
{
}
);
name = Regular;
}
);
glyphs = (
{
glyphname = A;
lastChange = "2023-10-25 18:54:39 +0000";
layers = (
{
layerId = m01;
shapes = (
{
closed = 1;
nodes = (
(74.356,28.348,o),
(152.951,68.108,o),
(160.994,112.212,cs),
(193.803,292.135,o),
(242.711,542.549,o),
(270.505,641.967,cs),
(279.821,675.288,o),
(187.994,590.433,o),
(179.495,560.033,cs),
(155.289,473.451,o),
(112.197,235.865,o),
(83.006,75.788,cs)
);
},
{
closed = 1;
nodes = (
(38.863,142.889,o),
(-17.112,-26.811,o),
(14.08,1.982,cs),
(34,20,o),
(69,30,o),
(100,27,cs),
(124,25,o),
(146,17,o),
(158.913,0.427,cs),
(173.978,-19.01,o),
(236.366,150.438,o),
(223.087,167.573,cs),
(208,187,o),
(182,197,o),
(155,198,cs),
(123,199,o),
(88,188,o),
(63.92,166.018,cs)
);
},
{
closed = 1;
nodes = (
(87.022,405.59,o),
(29.534,236.354,o),
(39.516,236.378,cs),
(177.207,236.711,o),
(314.874,237.044,o),
(452.516,237.378,cs),
(465.439,237.409,o),
(524.544,406.649,o),
(513.484,406.622,cs),
(375.793,406.289,o),
(238.126,405.956,o),
(100.484,405.622,cs)
);
},
{
closed = 1;
nodes = (
(365.889,733.02,o),
(222.512,631.299,o),
(233.501,610.786,cs),
(249.83,580.306,o),
(288.25,214.977,o),
(313.542,60.127,cs),
(322.644,4.4,o),
(359.8,-8.706,o),
(398.242,3.04,cs),
(432.531,13.517,o),
(553.354,143.059,o),
(513.758,130.96,cs),
(480.2,120.706,o),
(451.005,131.543,o),
(442.458,183.873,cs),
(418.776,328.864,o),
(390.17,687.694,o),
(376.499,713.214,cs)
);
}
);
width = 527;
}
);
unicode = 65;
},
{
glyphname = B;
lastChange = "2023-10-25 18:54:52 +0000";
layers = (
{
background = {
shapes = (
{
closed = 0;
nodes = (
(-171,91,l,{
"Letterink-NibData" = {
AngleInDegrees = 19;
MainAxisWidth = 150;
MinorAxisWidth = 14;
ValidForParentMainAxisWidth = 30;
ValidForParentMinorAxisWidth = 15;
};
})
);
},
{
closed = 0;
nodes = (
(153,517,l,{
"Letterink-NibData" = {
AngleInDegrees = "24";
MainAxisWidth = "150";
MinorAxisWidth = "15";
ValidForParentMainAxisWidth = "30";
ValidForParentMinorAxisWidth = "15";
};
})
);
},
{
closed = 0;
nodes = (
(235,325,l,{
"Letterink-NibData" = {
AngleInDegrees = "1";
MainAxisWidth = "137";
MinorAxisWidth = "48";
ValidForParentMainAxisWidth = "30";
ValidForParentMinorAxisWidth = "15";
};
})
);
},
{
closed = 0;
nodes = (
(235,325,l,{
"Letterink-NibData" = {
AngleInDegrees = "1";
MainAxisWidth = "137";
MinorAxisWidth = "48";
ValidForParentMainAxisWidth = "30";
ValidForParentMinorAxisWidth = "15";
};
}),
(551,587,o),
(217,740,o),
(132,517,cs,{
"Letterink-NibData" = {
AngleInDegrees = "26";
MainAxisWidth = "150";
MinorAxisWidth = "61";
ValidForParentMainAxisWidth = "30";
ValidForParentMinorAxisWidth = "15";
};
})
);
}
);
};
layerId = m01;
shapes = (
{
closed = 1;
nodes = (
(34.684,217.529,o),
(39.243,85.091,o),
(61.464,152.399,cs),
(97,261,o),
(291,316,o),
(365,283,cs),
(402,266,o),
(410,228,o),
(357.279,164.581,cs),
(285.85,78.581,o),
(317.718,22.708,o),
(394.721,115.419,cs),
(569,325,o),
(497,428,o),
(374,444,cs),
(257,460,o),
(94,396,o),
(52.536,271.601,cs)
);
},
{
closed = 1;
nodes = (
(304.968,-3.032,o),
(428.07,143.001,o),
(404.831,147.338,cs),
(185.185,188.324,o),
(95.231,194.974,o),
(55.822,167.559,cs),
(33.019,151.696,o),
(-25.914,-19.101,o),
(2.178,0.441,cs),
(8.769,5.026,o),
(86.815,37.676,o),
(285.169,0.662,cs)
);
},
{
closed = 1;
nodes = (
(165.19,324.137,o),
(163.789,238.519,o),
(246.454,303.894,cs),
(531,529,o),
(441,714,o),
(305,715,cs),
(233,715,o),
(147,663,o),
(98.202,535.277,cs),
(85.636,502.293,o),
(85.932,481.426,o),
(85.908,481.029,cs),
(85.106,467.789,o),
(36.011,180.12,o),
(30.314,128.026,cs),
(26.135,89.818,o),
(95.948,135.795,o),
(99.686,169.974,cs),
(107.989,245.88,o),
(174.894,500.211,o),
(178.092,552.971,c),
(173.994,534.888,o),
(169.896,516.805,o),
(165.798,498.723,c),
(179,534,o),
(217,547,o),
(251,542,cs),
(309,534,o),
(355,474,o),
(243.546,386.106,cs)
);
}
);
width = 520;
}
);
unicode = 66;
},
{
glyphname = C;
lastChange = "2023-10-25 18:55:10 +0000";
layers = (
{
layerId = m01;
shapes = (
{
closed = 1;
nodes = (
(400.671,661.783,o),
(271.11,596.073,o),
(220.04,542.998,cs),
(52,369,o),
(0,235,o),
(7,142,cs),
(16,41,o),
(96,-11,o),
(180,-14,cs),
(230,-16,o),
(282,0,o),
(319.142,34.963,cs),
(352.104,65.475,o),
(428.858,248.212,o),
(390.858,213.037,cs),
(344,170,o),
(280,152,o),
(228,163,cs),
(189,171,o),
(158,196,o),
(149,239,cs),
(133,310,o),
(178,431,o),
(347.96,607.002,cs)
);
},
{
closed = 1;
nodes = (
(350.873,439.473,o),
(461.973,581.824,o),
(439.168,586.456,cs),
(410,592,o),
(376,617,o),
(349,646,cs),
(318,677,o),
(296,713,o),
(294.647,731.856,cs),
(293.236,762.191,o),
(179.876,627.894,o),
(181.353,596.144,cs),
(182,572,o),
(202,538,o),
(230,509,cs),
(259,477,o),
(297,450,o),
(330.832,443.544,cs)
);
}
);
width = 447;
}
);
unicode = 67;
},
{
glyphname = D;
lastChange = "2023-10-25 18:55:16 +0000";
layers = (
{
layerId = m01;
shapes = (
{
closed = 1;
nodes = (
(110.018,727.68,o),
(46.348,559.847,o),
(63.523,546.812,cs),
(208,437,o),
(293,347,o),
(333,268,cs),
(373,188,o),
(368,120,o),
(331.826,53.062,c),
(367.509,85.461,o),
(403.191,117.861,o),
(438.873,150.26,c),
(216.237,173.967,o),
(122.889,202.552,o),
(78.085,167.018,cs),
(54.389,148.225,o),
(-3.41,-22.276,o),
(25.915,0.982,cs),
(39.111,11.448,o),
(119.763,22.033,o),
(329.127,-0.26,cs),
(362.75,-3.84,o),
(430.878,87.256,o),
(436.174,96.938,cs),
(475,169,o),
(489,233,o),
(483,292,cs),
(467,444,o),
(321,568,o),
(126.477,715.188,cs)
);
},
{
closed = 1;
nodes = (
(51.599,57.723,o),
(131.309,50.911,o),
(135.848,102.514,cs),
(153.287,300.775,o),
(193.89,620.775,o),
(176.162,647.368,cs),
(148.38,689.039,o),
(80.067,647.29,o),
(109.838,602.632,cs),
(110.018,602.362,o),
(77.242,349.246,o),
(56.152,109.486,cs)
);
}
);
width = 502;
}
);
unicode = 68;
},
{
glyphname = E;
lastChange = "2023-10-25 18:55:25 +0000";
layers = (
{
layerId = m01;
shapes = (
{
closed = 1;
nodes = (
(179.739,650.151,o),
(100.747,663.31,o),
(94.298,609.875,cs),
(70.736,414.648,o),
(51.915,219.722,o),
(29.211,31.603,cs),
(23.479,-15.89,o),
(44.901,-0.323,o),
(52.512,6.174,cs),
(79.943,29.591,o),
(119.418,35.119,o),
(168.218,19.428,cs),
(235.998,-2.366,o),
(326.57,-17.514,o),
(377.418,25.056,cs),
(400.473,44.358,o),
(446.237,218.097,o),
(418.582,194.944,cs),
(383.43,165.514,o),
(292.06,168.548,o),
(229.782,188.572,cs),
(178.627,205.021,o),
(144.057,206.409,o),
(89.488,159.826,c),
(97.255,151.35,o),
(105.022,142.873,o),
(112.789,134.397,c),
(132.085,294.278,o),
(155.264,447.352,o),
(173.702,600.125,cs)
);
},
{
closed = 1;
nodes = (
(66.231,437.661,o),
(5.981,268.21,o),
(27.276,268.276,cs),
(134.943,268.609,o),
(242.61,268.942,o),
(350.276,269.276,cs),
(370.333,269.338,o),
(431.893,438.793,o),
(409.724,438.724,cs),
(302.057,438.391,o),
(194.39,438.058,o),
(86.724,437.724,cs)
);
},
{
closed = 1;
nodes = (
(437.957,548.871,o),
(484.798,723.005,o),
(458.267,703.483,cs),
(431,683,o),
(343,697,o),
(259,703,cs),
(192,707,o),
(128,707,o),
(95.928,681.226,cs),
(72.639,662.39,o),
(29.078,490.558,o),
(54.072,510.774,cs),
(89,539,o),
(177,531,o),
(259,524,cs),
(326,518,o),
(390,514,o),
(415.733,532.517,cs)
);
}
);
width = 490;
}
);
unicode = 69;
},
{
glyphname = F;
lastChange = "2023-10-25 18:55:32 +0000";
layers = (
{
layerId = m01;
shapes = (
{
closed = 1;
nodes = (
(182.567,748.085,o),
(97.393,627.175,o),
(91.678,551.067,cs),
(79.486,388.723,o),
(72.935,235.953,o),
(61.228,80.069,cs),
(58.502,43.77,o),
(128.133,88.796,o),
(130.772,123.931,cs),
(144.399,305.381,o),
(163.181,489.944,o),
(176.322,664.933,cs)
);
},
{
closed = 1;
nodes = (
(434.549,560.879,o),
(477.748,732.769,o),
(448.872,705.302,cs),
(430,688,o),
(348,692,o),
(268,695,cs),
(200,699,o),
(133,702,o),
(109.393,689.652,cs),
(86.456,677.949,o),
(31.984,507.785,o),
(56.607,520.348,cs),
(84,534,o),
(181,523,o),
(267,519,cs),
(331,516,o),
(389,518,o),
(409.128,536.698,cs)
);
},
{
closed = 1;
nodes = (
(362.189,284.558,o),
(409.972,458.61,o),
(383.927,443.917,cs),
(347.753,423.511,o),
(124.727,456.557,o),
(80.927,430.917,cs),
(58.138,417.577,o),
(13.052,245.021,o),
(37.073,259.083,cs),
(75.273,281.443,o),
(298.247,248.489,o),
(340.073,272.083,cs)
);
},
{
closed = 1;
nodes = (
(18.863,142.889,o),
(-37.112,-26.811,o),
(-5.92,1.982,cs),
(15,21,o),
(52,31,o),
(85,27,cs),
(107,24,o),
(127,16,o),
(138.913,0.427,cs),
(153.978,-19.01,o),
(216.366,150.438,o),
(203.087,167.573,cs),
(187,189,o),
(157,199,o),
(126,198,cs),
(97,197,o),
(66,186,o),
(43.92,166.018,cs)
);
}
);
width = 490;
}
);
unicode = 70;
},
{
glyphname = G;
lastChange = "2023-10-25 18:55:43 +0000";
layers = (
{
layerId = m01;
shapes = (
{
closed = 1;
nodes = (
(436.413,659.576,o),
(343.295,642.271,o),
(294.409,599.2,cs),
(137,461,o),
(53,333,o),
(26,229,cs),
(0,130,o),
(25,53,o),
(85.769,9.029,cs),
(159.906,-44.88,o),
(282.85,-24.519,o),
(423.66,239.222,cs),
(475.647,336.594,o),
(414.847,291.38,o),
(364.34,196.778,cs),
(362.444,193.228,o),
(292.508,78.596,o),
(212.231,136.971,cs),
(166,171,o),
(143,218,o),
(149,276,cs),
(158,365,o),
(232,480,o),
(385.591,614.8,cs)
);
},
{
closed = 1;
nodes = (
(260.675,351.318,o),
(173.177,219.481,o),
(233.782,267.46,cs),
(247,278,o),
(280,283,o),
(303,266,cs),
(317,255,o),
(328,235,o),
(326.424,199.535,cs),
(323.261,134.803,o),
(313.734,71.538,o),
(307.441,5.882,cs),
(301.042,-60.888,o),
(315.83,-79.936,o),
(344.769,-99.971,cs),
(361.027,-111.226,o),
(488.069,16.314,o),
(471.231,27.971,cs),
(448.17,43.936,o),
(442.693,52.913,o),
(448.559,114.118,cs),
(454.664,177.821,o),
(464.405,243.554,o),
(467.576,308.465,cs),
(470,349,o),
(447,385,o),
(415,403,cs),
(385,419,o),
(346,419,o),
(310.218,390.54,cs)
);
},
{
closed = 1;
nodes = (
(411.255,593.045,o),
(464.332,760.529,o),
(432.105,727.227,cs),
(419,713,o),
(373,704,o),
(330,707,cs),
(297,708,o),
(265,716,o),
(247.69,732.008,cs),
(231.937,746.609,o),
(167.979,579.127,o),
(184.31,563.992,cs),
(205,545,o),
(245,536,o),
(285,536,cs),
(325,536,o),
(366,546,o),
(383.895,564.773,cs)
);
}
);
width = 490;
}
);
unicode = 71;
},
{
glyphname = H;
lastChange = "2023-10-25 18:54:15 +0000";
layers = (
{
layerId = m01;
shapes = (
{
closed = 1;
nodes = (
(69.063,437.679,o),
(8.396,268.227,o),
(28.998,268.275,cs),
(173.331,268.608,o),
(317.665,268.942,o),
(461.998,269.275,cs),
(481.491,269.32,o),
(543.496,438.775,o),
(522.002,438.725,cs),
(377.669,438.392,o),
(233.335,438.058,o),
(89.002,437.725,cs)
);
},
{
closed = 1;
nodes = (
(152.647,701.88,o),
(23.146,570.568,o),
(61.911,580.259,cs),
(71.212,582.584,o),
(82.156,563.718,o),
(76.522,488.328,cs),
(67.007,360.984,o),
(57.253,233.657,o),
(47.522,106.328,cs),
(42.403,39.334,o),
(65.951,-6.031,o),
(88.655,-2.117,cs),
(119.309,3.168,o),
(246.442,136.168,o),
(211.345,130.117,cs),
(176.049,124.031,o),
(187.662,154.661,o),
(192.478,217.672,cs),
(202.208,345,o),
(211.962,472.327,o),
(221.478,599.672,cs),
(226.006,660.27,o),
(214.788,717.416,o),
(184.089,709.741,cs)
);
},
{
closed = 1;
nodes = (
(421.647,701.88,o),
(292.146,570.568,o),
(330.911,580.259,cs),
(340.212,582.584,o),
(351.156,563.718,o),
(345.522,488.328,cs),
(336.007,360.984,o),
(326.253,233.657,o),
(316.522,106.328,cs),
(311.403,39.334,o),
(334.951,-6.031,o),
(357.655,-2.117,cs),
(388.309,3.168,o),
(515.442,136.168,o),
(480.345,130.117,cs),
(445.049,124.031,o),
(456.662,154.661,o),
(461.478,217.672,cs),
(471.208,345,o),
(480.962,472.327,o),
(490.478,599.672,cs),
(495.006,660.27,o),
(483.788,717.416,o),
(453.089,709.741,cs)
);
}
);
width = 550;
}
);
unicode = 72;
},
{
glyphname = I;
lastChange = "2023-10-25 18:54:15 +0000";
layers = (
{
layerId = m01;
shapes = (
{
closed = 1;
nodes = (
(130.647,699.88,o),
(1.146,568.568,o),
(39.911,578.259,cs),
(49.212,580.584,o),
(60.19,564.727,o),
(54.522,488.328,cs),
(45.074,360.979,o),
(35.253,233.657,o),
(25.522,106.328,cs),
(20.403,39.334,o),
(43.951,-6.031,o),
(66.655,-2.117,cs),
(97.309,3.168,o),
(224.442,136.168,o),
(189.345,130.117,cs),
(154.049,124.031,o),
(165.662,154.661,o),
(170.478,217.672,cs),
(180.208,345,o),
(190.03,472.322,o),
(199.478,599.672,cs),
(204.047,661.255,o),
(192.788,715.416,o),
(162.089,707.741,cs)
);
}
);
width = 225;
}
);
unicode = 73;
},
{
glyphname = J;
lastChange = "2023-10-25 18:56:16 +0000";
layers = (
{
layerId = m01;
shapes = (
{
closed = 1;
nodes = (
(186.293,2.432,o),
(277.901,26.407,o),
(338.308,73.6,cs),
(478.934,183.464,o),
(448.373,458.885,o),
(490.459,697.374,cs),
(496.053,729.072,o),
(354.673,619.708,o),
(349.541,590.626,cs),
(313.627,387.115,o),
(299.066,90.536,o),
(247.692,50.4,cs)
);
},
{
closed = 1;
nodes = (
(278.237,-8.661,o),
(400.569,136.858,o),
(382.627,147.066,cs),
(351,165,o),
(288,179,o),
(227,184,cs),
(167,190,o),
(109,186,o),
(83.457,167.301,cs),
(59.977,150.225,o),
(1.585,-20.361,o),
(30.543,0.699,cs),
(52,16,o),
(106,24,o),
(159,23,cs),
(199,21,o),
(238,14,o),
(261.373,0.934,cs)
);
},
{
closed = 1;
nodes = (
(459.255,572.045,o),
(512.332,739.529,o),
(480.105,706.227,cs),
(467,693,o),
(424,684,o),
(382,685,cs),
(348,687,o),
(314,694,o),
(295.69,711.008,cs),
(279.937,725.609,o),
(215.979,558.127,o),
(232.31,542.992,cs),
(252,525,o),
(288,516,o),
(325,515,cs),
(368,514,o),
(413,524,o),
(431.895,543.773,cs)
);
}
);
width = 520;
}
);
unicode = 74;
},
{
glyphname = K;
lastChange = "2023-10-25 18:56:38 +0000";
layers = (
{
layerId = m01;
shapes = (
{
closed = 1;
nodes = (
(268,479,o),
(248,462,o),
(226,440,cs),
(188,401,o),
(145,345,o),
(156.386,338.774,cs),
(166,333,o),
(197,238,o),
(237,150,cs),
(273,68,o),
(317,-7,o),
(358.52,0.583,cs),
(385.729,5.815,o),
(501.556,143.586,o),
(469.48,137.417,cs),
(433,130,o),
(387,221,o),
(348,310,cs),
(313,390,o),
(285,469,o),
(273.614,475.226,cs)
);
},
{
closed = 1;
nodes = (
(132.141,720.886,o),
(0.55,590.595,o),
(16.788,578.417,cs),
(21.547,574.848,o),
(39.812,550.841,o),
(35.522,496.328,cs),
(25.61,370.347,o),
(16.202,244.327,o),
(6.522,118.328,cs),
(1.548,53.574,o),
(1.522,-0.324,o),
(46.525,-0.324,cs),
(73.425,-0.324,o),
(203.969,152.324,o),
(171.475,152.324,cs),
(148.393,152.324,o),
(146.501,164.894,o),
(151.478,229.672,cs),
(161.157,355.671,o),
(170.565,481.691,o),
(180.478,607.672,cs),
(185.947,677.178,o),
(158.453,701.152,o),
(147.212,709.583,cs)
);
},
{
closed = 1;
nodes = (
(465.02,571.849,o),
(519.481,740.152,o),
(487.92,711.018,cs),
(470,695,o),
(440,685,o),
(411,685,cs),
(384,686,o),
(358,694,o),
(343.087,712.573,cs),
(328.732,731.095,o),
(264.215,564.393,o),
(278.913,545.427,cs),
(294,525,o),
(322,516,o),
(351,515,cs),
(382,515,o),
(415,526,o),
(438.08,546.982,cs)
);
},
{
closed = 1;
nodes = (
(471.885,625.117,o),
(408.128,651.83,o),
(366.52,604.675,cs),
(351.52,587.675,o),
(111.52,317.675,o),
(111.52,317.675,cs),
(70.413,271.43,o),
(135.759,246.514,o),
(176.48,292.325,cs),
(176.48,292.325,o),
(416.48,562.325,o),
(431.48,579.325,cs)
);
}
);
width = 502;
}
);
unicode = 75;
},
{
glyphname = L;
lastChange = "2023-10-25 18:56:46 +0000";
layers = (
{
layerId = m01;
shapes = (
{
closed = 1;
nodes = (
(126.082,179.376,o),
(55.785,20.968,o),
(98.135,61.94,cs),
(117,80,o),
(133,89,o),
(147,91,cs),
(197,97,o),
(221,15,o),
(279,0,cs),
(297,-4,o),
(319,-2,o),
(346.133,11.822,cs),
(369.731,23.796,o),
(428.849,193.871,o),
(401.867,180.178,cs),
(379,169,o),
(362,166,o),
(347,169,cs),
(301,177,o),
(284,236,o),
(248,250,cs),
(227,258,o),
(201,252,o),
(159.865,212.06,cs)
);
},
{
closed = 1;
nodes = (
(160.056,726.462,o),
(29.699,602.655,o),
(39.803,584.131,cs),
(56.737,553.085,o),
(58.03,547.645,o),
(53.441,489.882,cs),
(43.46,364.24,o),
(34.183,238.543,o),
(24.441,112.882,cs),
(19.19,45.15,o),
(22.354,22.764,o),
(27.363,2.729,cs),
(33.645,-22.401,o),
(148.123,117.33,o),
(142.637,139.271,cs),
(141.646,143.236,o),
(160.886,160.844,o),
(165.559,221.118,cs),
(175.3,346.779,o),
(184.577,472.476,o),
(194.559,598.118,cs),
(199.664,662.379,o),
(189.263,672.915,o),
(170.197,707.869,cs)
);
},
{
closed = 1;
nodes = (
(126.082,179.376,o),
(55.785,20.968,o),
(98.135,61.94,cs),
(208.433,168.651,o),
(215.479,-54.526,o),
(346.133,11.822,cs),
(369.727,23.803,o),
(428.845,193.879,o),
(401.867,180.178,cs),
(276.521,116.526,o),
(295.567,343.349,o),
(159.865,212.06,cs)
);
},
{
closed = 1;
nodes = (
(160.056,726.462,o),
(29.699,602.655,o),
(39.803,584.131,cs),
(56.737,553.085,o),
(58.03,547.645,o),
(53.441,489.882,cs),
(43.46,364.24,o),
(34.183,238.543,o),
(24.441,112.882,cs),
(19.19,45.15,o),
(22.354,22.764,o),
(27.363,2.729,cs),
(33.645,-22.401,o),
(148.123,117.33,o),
(142.637,139.271,cs),
(141.646,143.236,o),
(160.886,160.844,o),
(165.559,221.118,cs),
(175.3,346.779,o),
(184.577,472.476,o),
(194.559,598.118,cs),
(199.664,662.379,o),
(189.263,672.915,o),
(170.197,707.869,cs)
);
}
);
width = 430;
}
);
unicode = 76;
},
{
glyphname = M;
lastChange = "2023-10-25 18:56:51 +0000";
layers = (
{
layerId = m01;
shapes = (
{
closed = 1;
nodes = (
(290.596,722.953,o),
(169.623,603.713,o),
(180.562,586.303,cs),
(250.537,474.935,o),
(281.57,52.047,o),
(336.896,0.896,cs),
(351.005,-12.149,o),
(471.751,107.563,o),
(457.104,121.104,cs),
(406.43,167.953,o),
(373.463,591.065,o),
(301.438,705.697,cs)
);
},
{
closed = 1;
nodes = (
(63.529,52.25,o),
(139.506,80.142,o),
(155.5,127.5,cs),
(236.666,367.835,o),
(244.29,644.835,o),
(244.438,647.863,cs),
(245.624,672.133,o),
(172.692,607.28,o),
(171.562,584.137,cs),
(171.036,573.376,o),
(157.098,329.309,o),
(80.5,102.5,cs)
);
},
{
closed = 1;
nodes = (
(330.041,108.616,o),
(404.614,132.107,o),
(423.537,179.854,cs),
(510.923,400.351,o),
(568.415,583.534,o),
(571.543,606.997,cs),
(577.291,650.102,o),
(493.812,609.169,o),
(488.457,569.003,cs),
(487.585,562.466,o),
(435.077,373.649,o),
(350.463,160.146,cs)
);
},
{
closed = 1;
nodes = (
(627.504,732.535,o),
(498.528,608.545,o),
(499.485,580.803,cs),
(503.359,468.447,o),
(500.793,5.3,o),
(574.295,0.977,cs),
(597.676,-0.399,o),
(717.23,121.404,o),
(689.705,123.023,cs),
(625.184,126.819,o),
(632.678,582.474,o),
(628.515,703.197,cs)
);
},
{
closed = 1;
nodes = (
(39.193,142.594,o),
(-16.733,-27.21,o),
(14.08,1.982,cs),
(33,20,o),
(68,29,o),
(100,27,cs),
(126,26,o),
(150,18,o),
(162.913,0.427,cs),
(177.691,-19.276,o),
(240.069,150.263,o),
(227.087,167.573,cs),
(211,189,o),
(181,198,o),
(149,198,cs),
(118,197,o),
(85,186,o),
(63.92,166.018,cs)
);
}
);
width = 699;
}
);
unicode = 77;
},
{
glyphname = N;
lastChange = "2023-10-25 18:57:02 +0000";
layers = (
{
layerId = m01;
shapes = (
{
closed = 1;
nodes = (
(225.309,725.859,o),
(104.235,606.783,o),
(114.423,588.533,cs),
(205.308,425.74,o),
(304.833,129.186,o),
(407.72,2.09,cs),
(420.22,-13.351,o),
(540.686,106.584,o),
(528.28,121.91,cs),
(427.167,246.814,o),
(326.692,544.26,o),
(235.577,707.467,cs)
);
},
{
closed = 1;
nodes = (
(71.041,85.152,o),
(145.562,56.056,o),
(164.343,104.665,cs),
(188.345,166.787,o),
(209.711,570.182,o),
(209.903,573.21,cs),
(213.136,624.424,o),
(133.431,631.592,o),
(130.097,578.79,cs),
(129.133,563.51,o),
(105.787,175.084,o),
(89.657,133.335,cs)
);
},
{
closed = 1;
nodes = (
(38.863,144.889,o),
(-17.112,-24.811,o),
(14.08,3.982,cs),
(33,21,o),
(66,31,o),
(96,29,cs),
(122,28,o),
(145,20,o),
(158.913,2.427,cs),
(173.978,-17.01,o),
(236.366,152.438,o),
(223.087,169.573,cs),
(207,190,o),
(179,200,o),
(150,200,cs),
(119,200,o),
(86,189,o),
(63.92,168.018,cs)
);
},
{
closed = 1;
nodes = (
(580.02,569.849,o),
(634.481,738.152,o),
(602.92,709.018,cs),
(585,693,o),
(555,683,o),
(525,683,cs),
(498,684,o),
(472,692,o),
(458.087,710.573,cs),
(443.732,729.095,o),
(379.215,562.393,o),
(393.913,543.427,cs),
(412,520,o),
(446,511,o),
(480,514,cs),
(507,517,o),
(534,527,o),
(553.08,544.982,cs)
);
},
{
closed = 1;
nodes = (
(405,104,o),
(421,83,o),
(442,77,cs),
(460,72,o),
(481,78,o),
(489.343,100.665,cs),
(513.345,162.787,o),
(534.713,570.181,o),
(534.903,573.21,cs),
(538.105,624.424,o),
(458.399,631.595,o),
(455.097,578.79,cs),
(454.133,563.362,o),
(430.787,171.084,o),
(414.657,129.335,cs)
);
}
);
width = 617;
}
);
unicode = 78;
},
{
glyphname = O;
lastChange = "2023-10-25 18:57:16 +0000";
layers = (
{
layerId = m01;
shapes = (
{
closed = 1;
nodes = (
(110.083,7.916,o),
(116.119,-50.689,o),
(209.464,24.472,cs),
(304,100,o),
(415,228,o),
(403,402,cs),
(397,494,o),
(357,598,o),
(263.308,714.615,cs),
(249.338,731.872,o),
(162.376,567.069,o),
(176.692,549.385,cs),
(267,438,o),
(300,350,o),
(305,281,cs),
(313,142,o),
(203,83,o),
(196.536,77.528,cs)
);
},
{
closed = 1;
nodes = (
(276.223,678.65,o),
(288.685,765.227,o),
(218.228,671.284,cs),
(164,598,o),
(-14,339,o),
(-14,159,cs),
(-14,75,o),
(25,9,o),
(132.902,-13.599,cs),
(169.115,-21.025,o),
(300.938,101.02,o),
(259.098,109.599,cs),
(164,129,o),
(127,189,o),
(119,260,cs),
(105,403,o),
(211,592,o),
(211.772,592.716,cs)
);
}
);
width = 426;
}
);
unicode = 79;
},
{
glyphname = P;
lastChange = "2023-10-25 18:57:25 +0000";
layers = (
{
layerId = m01;
shapes = (
{
closed = 1;
nodes = (
(201.36,230.317,o),
(268.376,224.036,o),
(333.078,307.595,cs),
(428,431,o),
(454,521,o),
(439,583,cs),
(422,655,o),
(353,691,o),
(276,702,cs),
(232,708,o),
(185,705,o),
(143.771,695.404,cs),
(121.471,689.973,o),
(28.863,533.932,o),
(56.229,540.596,cs),
(203,576,o),
(299,538,o),
(316,462,cs),
(324,421,o),
(309,369,o),
(264.922,312.405,cs)
);
},
{
closed = 1;
nodes = (
(265.874,216.133,o),
(383.329,365.803,o),
(333.873,371.26,cs),
(182.396,387.975,o),
(116.521,407.263,o),
(84.521,394.463,cs),
(62.783,385.768,o),
(4.281,216.257,o),
(27.479,225.537,cs),
(35.479,228.737,o),
(85.604,236.025,o),
(224.127,220.74,cs)
);
},
{
closed = 1;
nodes = (
(228.742,630.258,o),
(87.467,519.913,o),
(85.441,492.882,cs),
(75.775,363.882,o),
(66.312,234.866,o),
(56.441,105.882,cs),
(51.533,41.749,o),
(65.115,-0.515,o),
(95.803,-0.515,cs),
(119.598,-0.515,o),
(246.621,128.515,o),
(218.197,128.515,cs),
(196.886,128.515,o),
(192.668,150.215,o),
(197.559,214.118,cs),
(207.43,343.102,o),
(216.892,472.118,o),
(226.559,601.118,cs)
);
}
);
width = 340;
}
);
unicode = 80;
},
{
glyphname = Q;
lastChange = "2023-10-25 18:57:34 +0000";
layers = (
{
layerId = m01;
shapes = (
{
closed = 1;
nodes = (
(159.535,14.836,o),
(177.304,-57.025,o),
(271.771,16.746,cs),
(353,80,o),
(489,207,o),
(492,380,cs),
(494,478,o),
(453,591,o),
(333.875,714.827,cs),
(319.075,730.292,o),
(232.386,565.123,o),
(247.65,549.173,cs),
(348,444,o),
(393,366,o),
(404,305,cs),
(430,174,o),
(303,127,o),
(247.149,83.254,cs)
);
},
{
closed = 1;
nodes = (
(328.725,646.418,o),
(368.274,765.637,o),
(300.734,687.972,cs),
(236,614,o),
(18,338,o),
(26,153,cs),
(30,71,o),
(77,8,o),
(199.738,-13.691,cs),
(236.983,-20.136,o),
(368.215,102.191,o),
(324.873,109.691,cs),
(208,130,o),
(165,191,o),
(158,263,cs),
(146,400,o),
(267,575,o),
(267.511,576.028,cs)
);
},
{
closed = 1;
nodes = (
(444.585,-19.954,o),
(503.696,33.692,o),
(495.787,51.308,cs),
(468.4,112.305,o),
(298.588,345.55,o),
(290.261,357.202,cs),
(279.017,372.938,o),
(220.883,317.989,o),
(231.739,302.798,cs),
(231.759,302.769,o),
(414.678,46.657,o),
(436.213,-1.308,cs)
);
}
);
width = 548;
}
);
unicode = 81;
},
{
glyphname = R;
lastChange = "2023-10-25 18:57:47 +0000";
layers = (
{
layerId = m01;
shapes = (
{
closed = 1;
nodes = (
(211.672,656.002,o),
(145.496,540.962,o),
(129.861,459.216,cs),
(108,346,o),
(172,221,o),
(249,130,cs),
(325,40,o),
(414,-18,o),
(443.429,4.74,cs),
(468.063,23.509,o),
(525.258,193.117,o),
(496.571,171.26,cs),
(466,148,o),
(394,201,o),
(328,280,cs),
(251,372,o),
(182,499,o),
(196.139,574.784,cs)
);
},
{
closed = 1;
nodes = (
(161.538,298.194,o),
(167.618,218.448,o),
(250.793,287.41,cs),
(374,390,o),
(427,484,o),
(437,557,cs),
(449,649,o),
(394,709,o),
(322,715,cs),
(249,721,o),
(159,669,o),
(108.202,535.277,cs),
(62.423,414.425,o),
(61.303,302.484,o),
(40.59,62.799,cs),
(36.654,17.261,o),
(115.858,64.099,o),
(119.41,105.201,cs),
(142.72,374.931,o),
(175.253,497.284,o),
(175.798,498.723,cs),
(190,536,o),
(236,547,o),
(272,537,cs),
(324,521,o),
(356,459,o),
(239.207,362.59,cs)
);
},
{
closed = 1;
nodes = (
(0.863,142.889,o),
(-55.112,-26.811,o),
(-23.92,1.982,cs),
(-3,21,o),
(35,31,o),
(69,27,cs),
(90,24,o),
(109,16,o),
(120.913,0.427,cs),
(135.978,-19.01,o),
(198.366,150.438,o),
(185.087,167.573,cs),
(169,189,o),
(139,198,o),
(109,198,cs),
(79,197,o),
(48,186,o),
(25.92,166.018,cs)
);
}
);
width = 517;
}
);
unicode = 82;
},
{
glyphname = S;
lastChange = "2023-10-25 18:57:55 +0000";
layers = (
{
layerId = m01;
shapes = (
{
closed = 1;
nodes = (
(270.685,417.929,o),
(395.219,524.62,o),
(420.519,573.888,cs),
(446,623,o),
(417,705,o),
(347,714,cs),
(311,719,o),
(264,705,o),
(208.62,659.522,cs),
(139.739,602.678,o),
(99.401,525.777,o),
(175.38,588.478,cs),
(200,608,o),
(251,589,o),
(282,554,cs),
(302,531,o),
(313,500,o),
(297.481,470.112,cs)
);
},
{
closed = 1;
nodes = (
(209.539,663.005,o),
(84.212,551.221,o),
(66.019,509.378,cs),
(22.202,408.599,o),
(98.537,358.638,o),
(168.189,294.189,cs),
(233.017,234.203,o),
(308.187,187.68,o),
(265.912,86.039,cs),
(250.534,49.067,o),
(375.984,163.243,o),
(392.088,201.961,cs),
(443.813,326.32,o),
(354.839,355.641,o),
(289.811,415.811,cs),
(221.309,479.196,o),
(155.798,539.401,o),
(191.981,622.622,cs)
);
},
{
closed = 1;
nodes = (
(160.818,273.502,o),
(33.11,159.121,o),
(16.021,116.968,cs),
(-1,75,o),
(27,7,o),
(87,-11,cs),
(126,-23,o),
(179,-13,o),
(241.332,39.953,cs),
(310.62,98.697,o),
(345.843,171.478,o),
(268.668,106.047,cs),
(256,95,o),
(218,105,o),
(186,127,cs),
(152,150,o),
(126,187,o),
(141.979,227.032,cs)
);
}
);
width = 440;
}
);
unicode = 83;
},
{
glyphname = T;
lastChange = "2023-10-25 18:58:15 +0000";
layers = (
{
layerId = m01;
shapes = (
{
closed = 1;
nodes = (
(392.005,554.946,o),
(452.092,722.668,o),
(405.049,699.93,cs),
(377,686,o),
(293,696,o),
(213,699,cs),
(144,702,o),
(78,700,o),
(49.582,675.944,cs),
(26.07,655.424,o),
(-16.966,483.903,o),
(8.418,506.056,cs),
(31,526,o),
(90,527,o),
(155,525,cs),
(232,524,o),
(316,518,o),
(352.951,536.07,cs)
);
},
{
closed = 1;
nodes = (
(312.349,628.376,o),
(261.445,645.746,o),
(227.618,602.067,cs),
(104.108,442.583,o),
(42.753,261.512,o),
(34.869,164.189,cs),
(25.844,52.802,o),
(83.441,-23.777,o),
(173.275,-14.321,cs),
(200.592,-11.445,o),
(335.515,101.773,o),
(302.725,98.321,cs),
(240.559,91.777,o),
(156.814,177.144,o),
(165.131,279.811,cs),
(169.72,336.449,o),
(193.892,475.417,o),
(276.382,581.933,cs)
);
}
);
width = 422;
}
);
unicode = 84;
},
{
glyphname = U;
lastChange = "2023-10-25 18:54:15 +0000";
layers = (
{
layerId = m01;
shapes = (
{
closed = 1;
nodes = (
(385.725,375.882,o),
(346.153,381.899,o),
(343.11,355.091,cs),
(315.726,113.851,o),
(243.566,124.428,o),
(232.141,123.556,cs),
(183.168,119.815,o),
(171.302,202.617,o),
(180.354,292.662,cs),
(190.506,393.647,o),
(200.132,494.685,o),
(210.354,595.662,cs),
(217.247,663.755,o),
(184.616,722.925,o),
(133.247,705.802,cs),
(100.394,694.851,o),
(-21.627,564.738,o),
(18.753,578.198,cs),
(63.384,593.075,o),
(70.498,550.271,o),
(65.646,502.338,cs),
(55.424,401.36,o),
(45.798,300.323,o),
(35.646,199.338,cs),
(25.222,95.644,o),
(87.841,-22.889,o),
(183.859,-15.556,cs),
(307.751,-6.093,o),
(368.024,219.944,o),
(382.89,350.909,cs)
);
},
{
closed = 1;
nodes = (
(450.317,-10.828,o),
(564.646,108.315,o),
(532.455,104.227,cs),
(475.584,97.005,o),
(453.853,199.677,o),
(463.354,292.662,cs),
(473.674,393.664,o),
(483.964,494.668,o),
(494.354,595.662,cs),
(501.357,663.737,o),
(467.644,722.935,o),
(416.247,705.802,cs),
(383.394,694.851,o),
(261.373,564.738,o),
(301.753,578.198,cs),
(346.356,593.065,o),
(354.577,550.27,o),
(349.646,502.338,cs),
(339.256,401.344,o),
(328.966,300.339,o),
(318.646,199.338,cs),
(307.305,88.346,o),
(352.192,-23.288,o),
(423.545,-14.227,cs)
);
}
);
width = 550;
}
);
unicode = 85;
},
{
glyphname = V;
lastChange = "2023-10-25 18:58:32 +0000";
layers = (
{
layerId = m01;
shapes = (
{
closed = 1;
nodes = (
(516.117,647.671,o),
(449.666,669.808,o),
(436.356,624.647,cs),
(376.128,420.302,o),
(272.89,100.02,o),
(259.16,13.065,cs),
(255.867,-7.793,o),
(358.002,72.964,o),
(360.84,90.935,cs),
(371.11,155.98,o),
(451.872,429.698,o),
(503.644,605.353,cs)
);
},
{
closed = 1;
nodes = (
(550.02,571.849,o),
(604.481,740.152,o),
(572.92,711.018,cs),
(554,693,o),
(519,684,o),
(487,686,cs),
(463,687,o),
(441,696,o),
(428.087,712.573,cs),
(413.732,731.095,o),
(349.215,564.393,o),
(363.913,545.427,cs),
(380,524,o),
(410,514,o),
(441,515,cs),
(470,516,o),
(501,527,o),
(523.08,546.982,cs)
);
},
{
closed = 1;
nodes = (
(252.318,-15.972,o),
(405.44,101.972,o),
(350.459,101.972,cs),
(297.64,101.972,o),
(262.292,476.257,o),
(232.4,635.182,cs),
(222.273,689.024,o),
(175.204,721.485,o),
(140.758,710.96,cs),
(108.886,701.221,o),
(-13.848,571.096,o),
(25.242,583.04,cs),
(62.796,594.515,o),
(93.788,562.987,o),
(103.6,510.818,cs),
(127.872,381.774,o),
(130.36,-15.972,o),
(207.541,-15.972,cs)
);
}
);
width = 600;
}
);
unicode = 86;
},
{
glyphname = W;
lastChange = "2023-10-25 18:58:41 +0000";
layers = (
{
layerId = m01;
shapes = (
{
closed = 1;
nodes = (
(387.787,-22.837,o),
(508.231,97.216,o),
(497.438,113.697,cs),
(424.443,225.162,o),
(413.658,647.875,o),
(354.91,699.28,cs),
(340.971,711.476,o),
(219.635,592.243,o),
(235.09,578.72,cs),
(288.342,532.125,o),
(301.557,108.838,o),
(376.562,-5.697,cs)
);
},
{
closed = 1;
nodes = (
(630.919,646.505,o),
(556.207,622.369,o),
(538.724,573.156,cs),
(453.705,333.844,o),
(434.869,55.741,o),
(434.605,52.774,cs),
(432.232,26.112,o),
(505.391,92.72,o),
(507.395,115.226,cs),
(508.342,125.863,o),
(532.699,370.034,o),
(613.276,596.844,cs)
);
},
{
closed = 1;
nodes = (
(658.915,557.231,o),
(714.006,725.998,o),
(683.316,698.377,cs),
(647.774,666.389,o),
(558.184,660.7,o),
(527.087,699.573,cs),
(512.459,717.857,o),
(447.934,551.152,o),
(462.913,532.427,cs),
(496.216,490.799,o),
(587.381,492.85,o),
(632.684,533.623,cs)
);
},
{
closed = 1;
nodes = (
(158.787,-22.837,o),
(279.231,97.216,o),
(268.438,113.697,cs),
(195.443,225.162,o),
(183.63,647.857,o),
(125.91,699.28,cs),
(112.049,711.629,o),
(-9.24,592.377,o),
(6.09,578.72,cs),
(58.37,532.143,o),
(72.557,108.838,o),
(147.562,-5.697,cs)
);
},
{
closed = 1;
nodes = (
(400.722,646.565,o),
(326.017,622.442,o),
(308.724,573.156,cs),
(224.193,332.245,o),
(205.946,56.6,o),
(205.605,52.774,cs),
(203.232,26.112,o),
(276.391,92.72,o),
(278.395,115.226,cs),
(279.342,125.863,o),
(303.694,370.034,o),
(383.276,596.844,cs)
);
}
);
width = 687;
}
);
unicode = 87;
},
{
glyphname = X;
lastChange = "2023-10-25 18:58:55 +0000";
layers = (
{
layerId = m01;
shapes = (
{
closed = 1;
nodes = (
(506.941,625.393,o),
(428.466,632.454,o),
(398.879,583.722,cs),
(378.885,550.791,o),
(167.139,140.541,o),
(166.053,138.442,cs),
(140.422,88.859,o),
(223.053,89.402,o),
(247.947,137.558,cs),
(258.979,158.899,o),
(451.62,534.276,o),
(477.121,576.278,cs)
);
},
{
closed = 1;
nodes = (
(466.536,4.019,o),
(575.364,147.564,o),
(545.515,142.447,cs),
(518,138,o),
(462,241,o),
(400,360,cs),
(318,520,o),
(226,709,o),
(181.741,698.291,cs),
(155.837,692,o),
(46.52,548,o),
(78.259,555.709,cs),
(111,564,o),
(184,417,o),
(259,272,cs),
(331,132,o),
(404,-7,o),
(440.485,-0.447,cs)
);
},
{
closed = 1;
nodes = (
(159.839,-44.793,o),
(272.975,94.311,o),
(271.647,122.856,cs),
(271,146,o),
(254,176,o),
(233,201,cs),
(211,226,o),
(186,246,o),
(167.45,250.392,cs),
(149.408,255.048,o),
(37.096,113.144,o),
(58.55,107.608,cs),
(71,104,o),
(94,85,o),
(115,62,cs),
(138,37,o),
(157,7,o),
(158.353,-12.856,cs)
);
},
{
closed = 1;
nodes = (
(484.82,448.635,o),
(596.071,590.813,o),
(574.45,596.392,cs),
(559,600,o),
(532,625,o),
(510,652,cs),
(491,675,o),
(475,701,o),
(474.647,716.856,cs),
(473.236,747.191,o),
(359.876,612.894,o),
(361.353,581.144,cs),
(362,557,o),
(378,530,o),
(398,506,cs),
(420,480,o),
(448,458,o),
(465.55,453.608,cs)
);
}
);
width = 609;
}
);
unicode = 88;
},
{
glyphname = Y;
lastChange = "2023-10-25 18:59:10 +0000";
layers = (
{
layerId = m01;
shapes = (
{
closed = 1;
nodes = (
(546.538,662.835,o),
(466.247,658.476,o),
(448.567,601.9,cs),
(443.822,586.718,o),
(211.429,131.962,o),
(204.211,117.792,cs),
(191,91,o),
(201,75,o),
(218,71,cs),
(236,67,o),
(263,78,o),
(277.789,106.208,cs),
(279.259,109.093,o),
(519.198,575.346,o),
(529.433,608.1,cs)
);
},
{
closed = 1;
nodes = (
(569.02,571.849,o),
(623.481,740.152,o),
(591.92,711.018,cs),
(574,694,o),
(541,685,o),
(511,685,cs),
(485,686,o),
(461,695,o),
(447.087,712.573,cs),
(432.732,731.095,o),
(368.215,564.393,o),
(382.913,545.427,cs),
(398,526,o),
(425,516,o),
(453,515,cs),
(485,515,o),
(519,525,o),
(542.08,546.982,cs)
);
},
{
closed = 1;
nodes = (
(301.339,328.659,o),
(416.171,456.899,o),
(367.824,434.452,cs),
(324,414,o),
(287,536,o),
(244,625,cs),
(219,679,o),
(191,721,o),
(159.719,709.626,cs),
(125.729,697.842,o),
(4.448,567.872,o),
(46.281,582.374,cs),
(79,594,o),
(108,516,o),
(141,440,cs),
(174,362,o),
(211,287,o),
(260.176,309.548,cs)
);
},
{
closed = 1;
nodes = (
(151.863,142.889,o),
(95.888,-26.811,o),
(127.08,1.982,cs),
(147,20,o),
(181,30,o),
(213,27,cs),
(237,25,o),
(259,17,o),
(271.913,0.427,cs),
(286.978,-19.01,o),
(349.366,150.438,o),
(336.087,167.573,cs),
(320,188,o),
(293,198,o),
(263,198,cs),
(232,198,o),
(200,187,o),
(176.92,166.018,cs)
);
}
);
width = 600;
}
);
unicode = 89;
},
{
glyphname = Z;
lastChange = "2023-10-25 18:59:18 +0000";
layers = (
{
layerId = m01;
shapes = (
{
closed = 1;
nodes = (
(20.357,122.064,o),
(-26.766,-40.27,o),
(27.512,6.174,cs),
(75,47,o),
(149,16,o),
(221,3,cs),
(268,-6,o),
(315,-6,o),
(352.418,25.056,cs),
(375.476,44.355,o),
(421.24,218.093,o),
(393.582,194.944,cs),
(345,154,o),
(285,178,o),
(221,191,cs),
(170,201,o),
(116,204,o),
(64.488,159.826,cs)
);
},
{
closed = 1;
nodes = (
(104.606,681.124,o),
(46.096,511.638,o),
(69.479,520.537,cs),
(180.305,562.709,o),
(280.612,506.987,o),
(397.165,540.433,cs),
(418.043,546.424,o),
(479.472,716.637,o),
(454.835,709.567,cs),
(341.388,677.013,o),
(241.695,733.291,o),
(126.521,689.463,cs)
);
},
{
closed = 1;
nodes = (
(435.554,627.313,o),
(350.468,621.224,o),
(330.54,572.159,cs),
(276.639,439.45,o),
(89.722,228.78,o),
(49.349,100.898,cs),
(33.516,50.746,o),
(122.116,67.064,o),
(136.651,113.102,cs),
(164.47,201.22,o),
(351.575,420.55,o),
(415.46,577.841,cs)
);
}
);
width = 462;
}
);
unicode = 90;
},
{
glyphname = a;
lastChange = "2023-10-25 18:54:15 +0000";
layers = (
{
layerId = m01;
shapes = (
{
closed = 1;
nodes = (
(30.833,-27.718,o),
(110.026,18.221,o),
(114.351,59.615,cs),
(127.619,186.613,o),
(152.448,332.261,o),
(160.228,370.177,cs),
(186.78,499.594,o),
(207.549,556.857,o),
(230.071,560.919,cs),
(283.678,570.587,o),
(291.752,499.413,o),
(280.721,409.037,cs),
(268.693,310.496,o),
(259.169,211.652,o),
(247.721,113.037,cs),
(240.153,47.841,o),
(251.36,8.64,o),
(285.818,0.6,cs),
(306.606,-4.25,o),
(434.042,123.832,o),
(410.182,129.4,cs),
(384.64,135.36,o),
(386.374,154.098,o),
(392.279,204.963,cs),
(403.727,303.577,o),
(413.252,402.421,o),
(425.279,500.963,cs),
(437.744,603.083,o),
(387.033,732.037,o),
(281.929,713.081,cs),
(132.661,686.16,o),
(98.148,465.637,o),
(81.772,385.823,cs),
(74.336,349.578,o),
(50.381,159.387,o),
(35.649,18.385,cs)
);
},
{
closed = 1;
nodes = (
(50.063,424.677,o),
(-10.604,255.225,o),
(9.998,255.275,cs),
(147.665,255.608,o),
(285.331,255.942,o),
(422.998,256.275,cs),
(442.491,256.322,o),
(504.496,425.777,o),
(483.002,425.725,cs),
(345.335,425.392,o),
(207.669,425.058,o),
(70.002,424.725,cs)
);
}
);
width = 493;
}
);
unicode = 97;
},
{
glyphname = b;
lastChange = "2023-10-25 18:59:59 +0000";
layers = (
{
layerId = m01;
shapes = (
{
closed = 1;
nodes = (
(42,207,o),
(55,101,o),
(75,184,cs),
(95,268,o),
(208,314,o),
(290,299,cs),
(356,287,o),
(401,236,o),
(363,133,cs),
(341,76,o),
(451,196,o),
(471,249,cs),
(523,386,o),
(426,460,o),
(312,462,cs),
(207,464,o),
(90,405,o),
(59,278,cs)
);
},
{
closed = 1;
nodes = (
(156,377,o),
(145,285,o),
(226,345,cs),
(530,568,o),
(447,727,o),
(307,715,cs),
(221,707,o),
(114,635,o),
(62,473,cs),
(28,364,o),
(106,342,o),
(142,455,cs),
(162,520,o),
(223,553,o),
(265,555,cs),
(319,559,o),
(345,516,o),
(230,431,cs)
);
},
{
closed = 1;
nodes = (
(154,497,o),
(78,521,o),
(63,469,cs),
(38,378,o),
(29,219,o),
(29,145,cs),
(29,92,o),
(115,99,o),
(115,153,cs),
(115,213,o),
(120,372,o),
(141,449,cs)
);
},
{
closed = 1;
nodes = (
(500,362,o),
(457,323,o),
(430,228,cs),
(414,168,o),
(313,141,o),
(233,156,cs),
(160,169,o),
(105,216,o),
(144,303,cs),
(172,367,o),
(65,255,o),
(38,195,cs),
(-5,99,o),
(65,7,o),
(163,-13,cs),
(269,-33,o),
(408,31,o),
(474,266,cs)
);
}
);
width = 510;
}
);
unicode = 98;
},
{
glyphname = c;
lastChange = "2023-10-25 19:00:28 +0000";
layers = (
{
layerId = m01;
shapes = (
{
closed = 1;
nodes = (
(336.292,442.558,o),
(448.515,584.135,o),
(443.515,606.946,cs),
(437,636,o),
(403,696,o),
(341,698,cs),
(298,700,o),
(242,674,o),
(173.965,591.678,cs),
(2,385,o),
(-27,193,o),
(20,82,cs),
(69,-33,o),
(201,-60,o),
(339.876,75.366,cs),
(425.544,159.363,o),
(425.957,262.676,o),
(334.124,172.634,cs),
(267,106,o),
(199,145,o),
(163,221,cs),
(125,300,o),
(122,421,o),
(192.035,504.322,cs),
(212,528,o),
(242,542,o),
(270,538,cs),
(297,534,o),
(321,513,o),
(330.485,469.054,cs)
);
}
);
width = 448;
}
);
unicode = 99;
},
{
glyphname = d;
lastChange = "2023-10-25 19:00:35 +0000";
layers = (
{
layerId = m01;
shapes = (
{
closed = 1;
nodes = (
(116.125,726.846,o),
(52.462,559.019,o),
(69.523,545.812,cs),
(207,439,o),
(292,349,o),
(330,262,cs),
(366,180,o),
(359,101,o),
(313.83,13.789,cs),
(285.915,-39.602,o),
(408.446,63.186,o),
(436.17,116.211,cs),
(468,178,o),
(479,236,o),
(472,292,cs),
(455,434,o),
(325,565,o),
(132.477,714.188,cs)
);
},
{
closed = 1;
nodes = (
(170.318,605.812,o),
(90.731,614.027,o),
(86.152,561.486,cs),
(72.819,408.486,o),
(59.486,255.486,o),
(46.152,102.486,cs),
(41.641,50.722,o),
(121.35,43.904,o),
(125.848,95.514,cs),
(139.181,248.514,o),
(152.514,401.514,o),
(165.848,554.514,cs)
);
},
{
closed = 1;
nodes = (
(65.252,220.033,o),
(1.596,52.213,o),
(18.523,38.812,cs),
(63,3,o),
(131,-13,o),
(198,-15,cs),
(240,-16,o),
(282,-10,o),
(316.646,-0.058,cs),
(337.652,6.22,o),
(395.945,177.407,o),
(371.354,170.058,cs),
(332,158,o),
(281,153,o),
(231,157,cs),
(175,162,o),
(119,177,o),
(81.477,207.188,cs)
);
}
);
width = 492;
}
);
unicode = 100;
},
{
glyphname = e;
lastChange = "2023-10-25 18:54:15 +0000";
layers = (
{
layerId = m01;
shapes = (
{
closed = 1;
nodes = (
(310.619,454.27,o),
(438.273,581.885,o),
(431.224,600.745,cs),
(393.993,700.365,o),
(316.911,732.768,o),
(265.515,708.089,cs),
(29.993,594.996,o),
(46.654,134.163,o),
(31.834,38.973,cs),
(24.192,-10.113,o),
(41.876,2.674,o),
(44.28,3.529,cs),
(88.537,19.265,o),
(120.535,26.899,o),
(170.729,18.3,cs),
(228.892,8.336,o),
(317.197,-13.7,o),
(367.296,27.29,cs),
(393.606,48.816,o),
(449.368,217.799,o),
(418.704,192.71,cs),
(380.803,161.7,o),
(289.129,177.788,o),
(231.271,187.7,cs),
(187.482,195.201,o),
(151.463,196.735,o),
(105.72,180.471,c),
(109.869,168.656,o),
(114.017,156.842,o),
(118.166,145.027,c),
(155.087,382.176,o),
(168.725,526.018,o),
(218.485,549.911,cs),
(233.202,556.978,o),
(265.916,573.88,o),
(302.776,475.255,cs)
);
},
{
closed = 1;
nodes = (
(63.231,437.661,o),
(2.981,268.21,o),
(24.276,268.276,cs),
(131.943,268.609,o),
(239.61,268.942,o),
(347.276,269.276,cs),
(367.333,269.338,o),
(428.893,438.793,o),
(406.724,438.724,cs),
(299.057,438.391,o),
(191.39,438.058,o),
(83.724,437.724,cs)
);
}
);
width = 451;
}
);
unicode = 101;
},
{
glyphname = f;
lastChange = "2023-10-25 18:54:15 +0000";
layers = (
{
layerId = m01;
shapes = (
{
closed = 1;
nodes = (
(420.7,592.038,o),
(466.235,751.961,o),
(429.561,704.081,cs),
(403.899,670.578,o),
(336.998,658.725,o),
(293.002,658.725,cs),
(238.26,658.725,o),
(175.546,680.931,o),
(143.475,710.33,cs),
(113.254,738.032,o),
(64.171,578.36,o),
(63.758,573.141,cs),
(48.646,382.142,o),
(34.11,197.328,o),
(19.543,13.22,cs),
(15.985,-31.745,o),
(95.235,16.053,o),
(98.457,56.78,cs),
(115.223,268.672,o),
(132.021,479.858,o),
(148.242,684.859,c),
(121.669,639.13,o),
(95.097,593.4,o),
(68.525,547.67,c),
(108.454,511.069,o),
(175.74,489.275,o),
(232.998,489.275,cs),
(285.002,489.275,o),
(342.101,489.422,o),
(388.439,549.919,cs)
);
},
{
closed = 1;
nodes = (
(327.144,226.259,o),
(377.345,399.467,o),
(356.019,399.611,cs),
(257.685,400.278,o),
(159.352,400.945,o),
(61.019,401.611,cs),
(41.545,401.743,o),
(-7.722,228.529,o),
(12.981,228.389,cs),
(111.315,227.722,o),
(209.648,227.055,o),
(307.981,226.389,cs)
);
}
);
width = 451;
}
);
unicode = 102;
},
{
glyphname = g;
lastChange = "2023-10-25 19:00:50 +0000";
layers = (
{
layerId = m01;
shapes = (
{
closed = 1;
nodes = (
(295.675,350.318,o),
(208.177,218.481,o),
(268.782,266.46,cs),
(283,278,o),
(320,287,o),
(343,269,cs),
(355,258,o),
(363,240,o),
(361.441,208.882,cs),
(358.982,168.067,o),
(351.398,126.466,o),
(346.48,85.246,cs),
(337.92,13.497,o),
(355.279,-8.377,o),
(371.255,-15.224,cs),
(389.879,-23.206,o),
(517.223,104.448,o),
(496.745,113.224,cs),
(486.244,117.725,o),
(479.451,125.122,o),
(487.52,192.754,cs),
(492.467,234.217,o),
(500.018,274.965,o),
(502.559,317.118,cs),
(505,353,o),
(488,384,o),
(461,401,cs),
(430,421,o),
(385,421,o),
(345.218,389.54,cs)
);
},
{
closed = 1;
nodes = (
(382.074,483.42,o),
(509.441,610.667,o),
(497.815,626.445,cs),
(454,687,o),
(405,718,o),
(353,717,cs),
(296,716,o),
(236,675,o),
(174.818,590.946,cs),
(-13,332,o),
(14,36,o),
(136,-10,cs),
(178,-26,o),
(231,-12,o),
(290.594,43.526,cs),
(338.166,88.017,o),
(446.725,319.03,o),
(449.11,326.184,cs),
(463.348,368.899,o),
(396.426,338.422,o),
(382.89,297.816,cs),
(346.68,189.186,o),
(309.886,160.924,o),
(309.406,160.474,cs),
(275,129,o),
(247,123,o),
(225,134,cs),
(145,175,o),
(140,440,o),
(209.182,535.054,cs),
(210,537,o),
(227,568,o),
(259,574,cs),
(285,578,o),
(322,564,o),
(370.185,499.555,cs)
);
}
);
width = 520;
}
);
unicode = 103;
},
{
glyphname = h;
lastChange = "2023-10-25 18:54:15 +0000";
layers = (
{
layerId = m01;
shapes = (
{
closed = 1;
nodes = (
(64.063,436.679,o),
(3.396,267.227,o),
(23.998,267.275,cs),
(168.331,267.608,o),
(312.665,267.942,o),
(456.998,268.275,cs),
(476.491,268.32,o),
(538.496,437.775,o),
(517.002,437.725,cs),
(372.669,437.392,o),
(228.335,437.058,o),
(84.002,436.725,cs)
);
},
{
closed = 1;
nodes = (
(185.056,726.462,o),
(54.699,602.655,o),
(64.803,584.131,cs),
(82.134,552.357,o),
(82.585,548.17,o),
(78.441,499.882,cs),
(67.183,368.685,o),
(59.403,237.193,o),
(49.441,105.882,cs),
(44.371,39.049,o),
(57.838,20.058,o),
(86.769,0.029,cs),
(103.027,-11.226,o),
(230.069,116.314,o),
(213.231,127.971,cs),
(190.162,143.942,o),
(185.917,152.93,o),
(190.559,214.118,cs),
(200.521,345.429,o),
(208.301,476.921,o),
(219.559,608.118,cs),
(224.177,661.936,o),
(213.866,673.643,o),
(195.197,707.869,cs)
);
},
{
closed = 1;
nodes = (
(453.056,726.462,o),
(322.699,602.655,o),
(332.803,584.131,cs),
(349.737,553.085,o),
(350.072,547.649,o),
(346.441,499.882,cs),
(336.459,368.573,o),
(327.403,237.193,o),
(317.441,105.882,cs),
(312.371,39.049,o),
(325.838,20.058,o),
(354.769,0.029,cs),
(371.027,-11.226,o),
(498.069,116.314,o),
(481.231,127.971,cs),
(458.162,143.942,o),
(453.917,152.93,o),
(458.559,214.118,cs),
(468.521,345.429,o),
(477.577,476.809,o),
(487.559,608.118,cs),
(491.683,662.37,o),
(482.263,672.915,o),
(463.197,707.869,cs)
);
}
);
width = 542;
}
);
unicode = 104;
},
{
glyphname = i;
lastChange = "2023-10-25 18:54:15 +0000";
layers = (
{
layerId = m01;
shapes = (
{
closed = 1;
nodes = (
(162.056,726.462,o),
(31.699,602.655,o),
(41.803,584.131,cs),
(58.737,553.085,o),
(59.99,547.65,o),
(55.441,489.882,cs),
(45.365,361.914,o),
(36.274,233.869,o),
(26.441,105.882,cs),
(21.307,39.055,o),
(34.838,20.059,o),
(63.769,0.029,cs),
(80.027,-11.226,o),
(207.069,116.314,o),
(190.231,127.971,cs),
(167.162,143.941,o),
(162.858,152.932,o),
(167.559,214.118,cs),
(177.391,342.105,o),
(186.482,470.15,o),
(196.559,598.118,cs),
(201.619,662.381,o),
(191.263,672.915,o),
(172.197,707.869,cs)
);
}
);
width = 223;
}
);
unicode = 105;
},
{
glyphname = j;
lastChange = "2023-10-25 19:00:56 +0000";
layers = (
{
layerId = m01;
shapes = (
{
closed = 1;
nodes = (
(151.061,302.496,o),
(23.366,195.069,o),
(4.825,150.5,cs),
(-25,80,o),
(34,1,o),
(119,-14,cs),
(178,-24,o),
(250,-2,o),
(311.816,77.149,cs),
(361.438,140.608,o),
(366.408,230.196,o),
(312.184,160.851,cs),
(286,127,o),
(236,118,o),
(194,129,cs),
(143,143,o),
(104,188,o),
(133.175,259.5,cs)
);
},
{
closed = 1;
nodes = (
(488.516,733.995,o),
(361.262,627.506,o),
(341.07,582.075,cs),
(332.532,562.865,o),
(320.578,551.716,o),
(315.441,492.882,cs),
(304.77,370.666,o),
(296.886,248.207,o),
(287.441,125.882,cs),
(278.694,12.594,o),
(336.917,131.754,o),
(336.047,131.214,cs),
(283.51,98.605,o),
(181.173,-24.181,o),
(243.953,14.786,cs),
(328.754,67.421,o),
(426.14,202.79,o),
(428.559,234.118,cs),
(438.003,356.443,o),
(445.887,478.901,o),
(456.559,601.118,cs),
(462.084,664.401,o),
(461.468,673.135,o),
(468.93,689.925,cs)
);
}
);
width = 499;
}
);
unicode = 106;
},
{
glyphname = k;
lastChange = "2023-10-25 19:01:14 +0000";
layers = (
{
layerId = m01;
shapes = (
{
closed = 1;
nodes = (
(181.333,372.593,o),
(73.58,235.7,o),
(119.072,259.631,cs),
(187,295,o),
(240,282,o),
(279,247,cs),
(343,189,o),
(368,71,o),
(354.226,6.329,cs),
(346.074,-32.576,o),
(466.48,96.857,o),
(473.774,131.671,cs),
(489,205,o),
(459,355,o),
(371,403,cs),
(332,424,o),
(282,425,o),
(218.928,392.369,cs)
);
},
{
closed = 1;
nodes = (
(132.141,720.886,o),
(0.55,590.595,o),
(16.788,578.417,cs),
(21.547,574.848,o),
(39.812,550.841,o),
(35.522,496.328,cs),
(25.61,370.347,o),
(16.202,244.327,o),
(6.522,118.328,cs),
(1.548,53.574,o),
(1.522,-0.324,o),
(46.525,-0.324,cs),
(73.425,-0.324,o),
(203.969,152.324,o),
(171.475,152.324,cs),
(148.393,152.324,o),
(146.501,164.894,o),
(151.478,229.672,cs),
(161.157,355.671,o),
(170.565,481.691,o),
(180.478,607.672,cs),
(185.947,677.178,o),
(158.453,701.152,o),
(147.212,709.583,cs)
);
},
{
closed = 1;
nodes = (
(511.885,689.117,o),
(448.128,715.83,o),
(406.52,668.675,cs),
(389.523,649.411,o),
(110.795,316.851,o),
(110.442,316.43,cs),
(71.207,269.628,o),
(138.311,246.755,o),
(177.558,293.57,cs),
(189.952,308.355,o),
(447.601,616.262,o),
(471.48,643.325,cs)
);
}
);
width = 502;
}
);
unicode = 107;
},
{
glyphname = l;
lastChange = "2023-10-25 19:01:44 +0000";
layers = (
{
layerId = m01;
shapes = (
{
closed = 1;
nodes = (
(150.141,720.886,o),
(18.55,590.595,o),
(34.788,578.417,cs),
(39.547,574.848,o),
(57.812,550.841,o),
(53.522,496.328,cs),
(43.61,370.347,o),
(34.202,244.327,o),
(24.522,118.328,cs),
(19.548,53.574,o),
(19.522,-0.324,o),
(64.525,-0.324,cs),
(91.425,-0.324,o),
(221.969,152.324,o),
(189.475,152.324,cs),
(166.393,152.324,o),
(164.501,164.894,o),
(169.478,229.672,cs),
(179.157,355.671,o),
(188.565,481.691,o),
(198.478,607.672,cs),
(203.947,677.178,o),
(176.453,701.152,o),
(165.212,709.583,cs)
);
},
{
closed = 1;
nodes = (
(99.374,58.489,o),
(94.682,2.054,o),
(157.816,86.68,cs),
(174,109,o),
(211,107,o),
(245,91,cs),
(281,75,o),
(314,42,o),
(323.347,3.617,cs),
(329.818,-24.424,o),
(432.362,123.645,o),
(426.653,148.383,cs),
(420,178,o),
(384,238,o),
(325,245,cs),
(281,251,o),
(225,227,o),
(158.184,137.32,cs)
);
}
);
width = 430;
}
);
unicode = 108;
},
{
glyphname = m;
lastChange = "2023-10-25 18:54:15 +0000";
layers = (
{
layerId = m01;
shapes = (
{
closed = 1;
nodes = (
(247.721,715.855,o),
(119.848,588.904,o),
(136.769,577.029,cs),
(190.947,539.01,o),
(250.576,181.163,o),
(260.504,4.456,cs),
(262.051,-23.087,o),
(390.882,102.881,o),
(389.496,127.544,cs),
(379.424,306.837,o),
(323.053,662.99,o),
(263.231,704.971,cs)
);
},
{
closed = 1;
nodes = (
(-8.338,-11.068,o),
(58.24,-6.796,o),
(79.753,39.971,cs),
(201.798,305.286,o),
(196.815,606.131,o),
(196.821,609.317,cs),
(196.889,644.34,o),
(127.243,595.371,o),
(127.179,562.683,cs),
(127.157,551.111,o),
(126.707,282.506,o),
(14.247,38.029,cs)
);
},
{
closed = 1;
nodes = (
(264.22,86.846,o),
(326.075,104.519,o),
(347.444,147.855,cs),
(458.586,373.254,o),
(514.476,608.043,o),
(515.055,610.43,cs),
(524.954,651.217,o),
(456.102,613.304,o),
(446.945,575.57,cs),
(444.712,566.371,o),
(393.612,349.257,o),
(286.556,132.145,cs)
);
},
{
closed = 1;
nodes = (
(554.339,702.515,o),
(425.971,573.485,o),
(453.803,573.485,cs),
(485.855,573.485,o),
(451.251,111.231,o),
(502.892,0.003,cs),
(511.951,-19.507,o),
(639.426,108.08,o),
(631.108,125.997,cs),
(578.749,238.769,o),
(620.145,702.515,o),
(576.197,702.515,cs)
);
}
);
width = 650;
}
);
unicode = 109;
},
{
glyphname = n;
lastChange = "2023-10-25 18:54:15 +0000";
layers = (
{
layerId = m01;
shapes = (
{
closed = 1;
nodes = (
(158.309,725.859,o),
(37.235,606.783,o),
(47.423,588.533,cs),
(138.147,426.028,o),
(238.105,116.633,o),
(340.896,20.896,cs),
(354.969,7.789,o),
(475.698,127.512,o),
(461.104,141.104,cs),
(359.895,235.367,o),
(259.853,543.972,o),
(168.577,707.467,cs)
);
},
{
closed = 1;
nodes = (
(12.224,-25.638,o),
(90.832,14.138,o),
(98.994,58.212,cs),
(110.193,118.688,o),
(142.375,596.577,o),
(142.457,597.78,cs),
(145.478,641.859,o),
(66.459,596.781,o),
(63.543,554.22,cs),
(62.441,538.141,o),
(32.332,82.947,o),
(21.006,21.788,cs)
);
},
{
closed = 1;
nodes = (
(458.543,725.849,o),
(335.332,609.048,o),
(345.395,590.6,cs),
(362.347,559.52,o),
(363.805,553.634,o),
(359.307,496.345,cs),
(323.651,42.187,o),
(310.743,28.001,o),
(367.782,1.302,cs),
(386.097,-7.27,o),
(506.1,113.391,o),
(486.218,122.698,cs),
(449.257,139.999,o),
(457.238,146.057,o),
(492.693,597.655,cs),
(497.776,662.399,o),
(487.653,672.48,o),
(468.605,707.4,cs)
);
}
);
width = 515;
}
);
unicode = 110;
},
{
glyphname = o;
lastChange = "2023-10-25 19:01:56 +0000";
layers = (
{
layerId = m01;
shapes = (
{
closed = 1;
nodes = (
(471,230,o),
(486,444,o),
(432,580,cs),
(371,734,o),
(223,789,o),
(96.663,582.698,cs),
(3,429,o),
(2,247,o),
(49,124,cs),
(100,-8,o),
(207,-70,o),
(313.048,50.373,cs)
);
},
{
closed = 1;
nodes = (
(263,92,o),
(203,165,o),
(165,268,cs),
(129,368,o),
(114,496,o),
(155.337,563.302,cs),
(193,625,o),
(255,556,o),
(297,456,cs),
(342,349,o),
(363,205,o),
(306.952,141.627,cs)
);
}
);
width = 479;
}
);
unicode = 111;
},
{
glyphname = p;
lastChange = "2023-10-25 19:02:00 +0000";
layers = (
{
background = {
shapes = (
{
closed = 0;
nodes = (
(106,582,l,{
"Letterink-NibData" = {
AngleInDegrees = "-6";
MainAxisWidth = "150";
MinorAxisWidth = "15";
ValidForParentMainAxisWidth = "30";
ValidForParentMinorAxisWidth = "15";
};
}),
(77,160,ls,{
"Letterink-NibData" = {
AngleInDegrees = "-6";
MainAxisWidth = "150";
MinorAxisWidth = "15";
ValidForParentMainAxisWidth = "30";
ValidForParentMinorAxisWidth = "15";
};
}),
(73,96,o),
(81,82,o),
(107,64,c,{
"Letterink-NibData" = {
MainAxisWidth = "150";
MinorAxisWidth = "15";
ValidForParentMainAxisWidth = "30";
ValidForParentMinorAxisWidth = "15";
};
})
);
},
{
closed = 0;
nodes = (
(92,277,l,{
"Letterink-NibData" = {
AngleInDegrees = "-6";
MainAxisWidth = "136";
MinorAxisWidth = "40";
ValidForParentMainAxisWidth = "30";
ValidForParentMinorAxisWidth = "15";
};
}),
(427,402,o),
(318,688,o),
(90,656,c,{
"Letterink-NibData" = {
AngleInDegrees = "-4";
MainAxisWidth = "150";
MinorAxisWidth = "15";
ValidForParentMainAxisWidth = "30";
ValidForParentMinorAxisWidth = "15";
};
})
);
}
);
};
layerId = m01;
shapes = (
{
closed = 1;
nodes = (
(69.752,300.991,o),
(-4.644,193.882,o),
(75.641,225.342,cs),
(312,318,o),
(391,429,o),
(391,522,cs),
(390,640,o),
(261,730,o),
(169.062,715.963,cs),
(152.789,713.564,o),
(38.657,621.415,o),
(37.373,599.453,cs),
(27.751,434.877,o),
(16.393,270.414,o),
(6.441,105.882,cs),
(2.562,41.749,o),
(15.11,-0.515,o),
(45.803,-0.515,cs),
(69.598,-0.515,o),
(196.621,128.515,o),
(168.197,128.515,cs),
(146.886,128.515,o),
(143.694,150.215,o),
(147.559,214.118,cs),
(157.605,380.213,o),
(164.916,546.457,o),
(174.627,712.547,c),
(130.731,673.71,o),
(86.834,634.874,o),
(42.938,596.037,c),
(179,616,o),
(227,557,o),
(229,489,cs),
(231,423,o),
(189,348,o),
(140.359,328.658,cs)
);
}
);
width = 388;
}
);
unicode = 112;
},
{
glyphname = q;
lastChange = "2023-10-25 19:02:23 +0000";
layers = (
{
layerId = m01;
shapes = (
{
closed = 1;
nodes = (
(536,216,o),
(561,418,o),
(510,555,cs),
(446,724,o),
(267,795,o),
(126.768,599.685,cs),
(1,426,o),
(5,239,o),
(66,118,cs),
(128,-6,o),
(250,-61,o),
(353.59,39.322,cs)
);
},
{
closed = 1;
nodes = (
(299,86,o),
(228,164,o),
(185,269,cs),
(144,370,o),
(128,497,o),
(162.954,546.315,cs),
(225,632,o),
(310,552,o),
(360,441,cs),
(407,338,o),
(425,207,o),
(368.6,152.678,cs)
);
},
{
closed = 1;
nodes = (
(287.348,382.611,o),
(232.499,318.32,o),
(247.239,296.21,cs),
(261.239,275.21,o),
(456.239,-9.641,o),
(456.239,-9.641,cs),
(471.621,-32.112,o),
(527.323,30.909,o),
(511.761,53.641,cs),
(501.709,68.325,o),
(325.048,326.061,o),
(302.761,359.492,cs)
);
}
);
width = 600;
}
);
unicode = 113;
},
{
glyphname = r;
lastChange = "2023-10-25 19:02:30 +0000";
layers = (
{
layerId = m01;
shapes = (
{
closed = 1;
nodes = (
(100.883,354.456,o),
(35.27,206.806,o),
(66.861,225.325,cs),
(152,275,o),
(222,284,o),
(269,261,cs),
(332,229,o),
(353,141,o),
(313.769,19.91,cs),
(292.717,-44.068,o),
(422.889,55.31,o),
(442.231,114.09,cs),
(498,285,o),
(431,397,o),
(317,415,cs),
(262,423,o),
(195,409,o),
(125.139,368.675,cs)
);
},
{
closed = 1;
nodes = (
(161.416,319.046,o),
(163.759,236.315,o),
(246.626,303.628,cs),
(534,537,o),
(452,709,o),
(319,714,cs),
(244,717,o),
(152,665,o),
(102.33,539.199,cs),
(61.276,434.653,o),
(123.888,385.311,o),
(167.67,496.801,cs),
(183,536,o),
(231,550,o),
(269,543,cs),
(323,532,o),
(355,477,o),
(239.374,382.372,cs)
);
},
{
closed = 1;
nodes = (
(181.472,538.386,o),
(109.826,558.986,o),
(93.714,508.861,cs),
(60.504,405.541,o),
(38.248,81.102,o),
(33.543,15.22,cs),
(30.331,-29.744,o),
(109.545,18.003,o),
(112.457,58.78,cs),
(115.752,104.898,o),
(145.496,426.459,o),
(166.286,491.139,cs)
);
}
);
width = 520;
}
);
unicode = 114;
},
{
glyphname = s;
lastChange = "2023-10-25 19:02:38 +0000";
layers = (
{
layerId = m01;
shapes = (
{
closed = 1;
nodes = (
(67.284,270.377,o),
(1.351,106.354,o),
(14.392,80.271,cs),
(27,54,o),
(68,9,o),
(122,-8,cs),
(179,-27,o),
(251,-14,o),
(321.801,85.942,cs),
(495.27,332.617,o),
(396.699,351.643,o),
(292.105,420.065,cs),
(133.301,523.948,o),
(164.256,552.454,o),
(168.801,558.942,cs),
(178,572,o),
(221,571,o),
(267,551,cs),
(306,533,o),
(348,500,o),
(371.555,447.212,cs),
(382.864,422.081,o),
(445.961,591.642,o),
(436.445,612.788,cs),
(423,643,o),
(360,716,o),
(283,714,cs),
(240,714,o),
(193,690,o),
(147.199,625.058,cs),
(-7.807,403.784,o),
(63.257,358.386,o),
(167.895,289.935,cs),
(328.349,184.973,o),
(315.449,173.743,o),
(300.199,152.058,cs),
(289,136,o),
(242,135,o),
(193,153,cs),
(149,168,o),
(103,199,o),
(79.608,245.729,cs)
);
}
);
width = 450;
}
);
unicode = 115;
},
{
glyphname = t;
lastChange = "2023-10-25 18:54:15 +0000";
layers = (
{
layerId = m01;
shapes = (
{
closed = 1;
nodes = (
(426.039,540.517,o),
(493.819,708.379,o),
(452.476,701.351,cs),
(353.156,684.467,o),
(140.439,716.781,o),
(77.246,684.095,cs),
(54.769,672.469,o),
(9.203,499.723,o),
(32.754,511.905,cs),
(85.561,539.219,o),
(290.844,517.533,o),
(391.524,534.649,cs)
);
},
{
closed = 1;
nodes = (
(281.34,570.004,o),
(147.417,442.641,o),
(155.896,422.653,cs),
(168.586,392.741,o),
(107.934,78.087,o),
(141.012,-1.508,cs),
(149.621,-22.223,o),
(280.776,108.768,o),
(272.988,127.508,cs),
(242.066,201.913,o),
(305.414,513.259,o),
(290.104,549.347,cs)
);
}
);
width = 490;
}
);
unicode = 116;
},
{
glyphname = u;
lastChange = "2023-10-25 18:54:15 +0000";
layers = (
{
layerId = m01;
shapes = (
{
closed = 1;
nodes = (
(144.525,753.627,o),
(16.461,627.222,o),
(34.117,606.623,cs),
(44.549,594.453,o),
(55.325,576.551,o),
(49.721,532.037,cs),
(37.453,434.594,o),
(27.828,332.567,o),
(16.721,236.037,cs),
(2.355,111.183,o),
(99.352,-12.066,o),
(229.891,29.588,cs),
(337.989,64.081,o),
(415.962,188.776,o),
(434.265,279.368,cs),
(455.291,383.434,o),
(469.067,715.187,o),
(469.493,723.352,cs),
(471.76,766.853,o),
(392.708,720.87,o),
(390.507,678.648,cs),
(389.882,666.649,o),
(374.651,388.26,o),
(355.735,294.632,cs),
(332.333,178.802,o),
(278.082,156.318,o),
(272.109,154.412,cs),
(182.706,125.884,o),
(148.479,216.721,o),
(161.279,327.963,cs),
(172.869,428.686,o),
(181.748,524.425,o),
(194.279,623.963,cs),
(203.053,693.653,o),
(175.451,717.547,o),
(161.883,733.377,cs)
);
}
);
width = 483;
}
);
unicode = 117;
},
{
glyphname = v;
lastChange = "2023-10-25 18:54:15 +0000";
layers = (
{
layerId = m01;
shapes = (
{
closed = 1;
nodes = (
(481.863,739.006,o),
(404.556,705.957,o),
(392.553,659.279,cs),
(347.99,485.978,o),
(229.844,133.692,o),
(217.399,81.649,cs),
(205.733,32.865,o),
(283.916,69.668,o),
(294.601,114.351,cs),
(304.156,154.308,o),
(424.01,514.022,o),
(469.447,690.721,cs)
);
},
{
closed = 1;
nodes = (
(188.966,-34.044,o),
(315.992,93.554,o),
(287.935,116.267,cs),
(271.279,129.75,o),
(255.241,143.482,o),
(241.39,229.913,cs),
(229.486,304.2,o),
(224.533,428.781,o),
(199.566,599.727,cs),
(189.574,668.14,o),
(173.881,708.475,o),
(146.182,715.4,cs),
(126.906,720.219,o),
(-1.592,592.453,o),
(21.818,586.6,cs),
(34.119,583.525,o),
(54.846,547.922,o),
(64.434,482.273,cs),
(88.519,317.373,o),
(85.415,193.944,o),
(96.61,124.087,cs),
(111.895,28.7,o),
(136.721,8.25,o),
(162.065,-12.267,cs)
);
}
);
width = 490;
}
);
unicode = 118;
},
{
glyphname = w;
lastChange = "2023-10-25 18:54:15 +0000";
layers = (
{
layerId = m01;
shapes = (
{
closed = 1;
nodes = (
(387.787,-22.837,o),
(508.231,97.216,o),
(497.438,113.697,cs),
(424.443,225.162,o),
(413.658,647.875,o),
(354.91,699.28,cs),
(340.971,711.476,o),
(219.635,592.243,o),
(235.09,578.72,cs),
(288.342,532.125,o),
(301.557,108.838,o),
(376.562,-5.697,cs)
);
},
{
closed = 1;
nodes = (
(649.725,721.978,o),
(574.668,696.804,o),
(558.5,647.5,cs),
(454.133,329.234,o),
(434.855,55.522,o),
(434.605,52.774,cs),
(432.181,26.112,o),
(505.349,92.727,o),
(507.395,115.226,cs),
(508.346,125.684,o),
(532.629,364.893,o),
(633.5,672.5,cs)
);
},
{
closed = 1;
nodes = (
(158.787,-22.837,o),
(279.231,97.216,o),
(268.438,113.697,cs),
(195.443,225.162,o),
(183.63,647.857,o),
(125.91,699.28,cs),
(112.049,711.629,o),
(-9.24,592.377,o),
(6.09,578.72,cs),
(58.37,532.143,o),
(72.557,108.838,o),
(147.562,-5.697,cs)
);
},
{
closed = 1;
nodes = (
(400.722,646.565,o),
(326.017,622.442,o),
(308.724,573.156,cs),
(224.193,332.245,o),
(205.946,56.6,o),
(205.605,52.774,cs),
(203.232,26.112,o),
(276.391,92.72,o),
(278.395,115.226,cs),
(279.342,125.863,o),
(303.694,370.034,o),
(383.276,596.844,cs)
);
}
);
width = 600;
}
);
unicode = 119;
},
{
glyphname = x;
lastChange = "2023-10-25 18:54:15 +0000";
layers = (
{
layerId = m01;
shapes = (
{
closed = 1;
nodes = (
(568.448,710,o),
(489.346,716,o),
(460.489,667.067,cs),
(425.723,608.116,o),
(99.55,67.708,o),
(83.879,41.722,cs),
(53.766,-8.211,o),
(133.564,-13.076,o),
(162.121,34.278,cs),
(162.253,34.496,o),
(515.802,620.73,o),
(539.511,660.933,cs)
);
},
{
closed = 1;
nodes = (
(466.536,4.019,o),
(575.364,147.564,o),
(545.515,142.447,cs),
(480.143,131.24,o),
(257.98,716.806,o),
(181.741,698.291,cs),
(155.837,692,o),
(46.52,548,o),
(78.259,555.709,cs),
(142.02,571.194,o),
(365.857,-13.24,o),
(440.485,-0.447,cs)
);
}
);
width = 609;
}
);
unicode = 120;
},
{
glyphname = y;
lastChange = "2023-10-25 19:05:56 +0000";
layers = (
{
layerId = m01;
shapes = (
{
closed = 1;
nodes = (
(564,686,o),
(552,699,o),
(534,700,cs),
(513,701,o),
(485,686,o),
(475,655,cs),
(471,640,o),
(178,62,o),
(171,47,cs),
(158,21,o),
(168,5,o),
(185,1,cs),
(203,-3,o),
(230,8,o),
(244,36,cs),
(246,39,o),
(546,628,o),
(556,661,cs)
);
},
{
closed = 1;
nodes = (
(301.339,328.659,o),
(416.171,456.899,o),
(367.824,434.452,cs),
(324,414,o),
(287,536,o),
(244,625,cs),
(219,679,o),
(191,721,o),
(159.719,709.626,cs),
(125.729,697.842,o),
(4.448,567.872,o),
(46.281,582.374,cs),
(79,594,o),
(108,516,o),
(141,440,cs),
(174,362,o),
(211,287,o),
(260.176,309.548,cs)
);
}
);
width = 600;
}
);
unicode = 121;
},
{
glyphname = z;
lastChange = "2023-10-25 19:03:29 +0000";
layers = (
{
layerId = m01;
shapes = (
{
closed = 1;
nodes = (
(82.222,128.068,o),
(38.636,-40.055,o),
(89.665,3.608,cs),
(136,43,o),
(203,55,o),
(267,48,cs),
(319,43,o),
(369,26,o),
(401.523,0.812,cs),
(418.584,-12.042,o),
(480.567,157.065,o),
(464.477,169.188,cs),
(433,193,o),
(385,213,o),
(331,220,cs),
(262,229,o),
(185,216,o),
(122.335,162.392,cs)
);
},
{
closed = 1;
nodes = (
(195.48,726.876,o),
(130.955,560.171,o),
(145.913,541.427,cs),
(167,515,o),
(213,497,o),
(266,492,cs),
(333,486,o),
(411,500,o),
(460.296,542.29,cs),
(486.085,564.367,o),
(541.818,733.489,o),
(511.704,707.71,cs),
(474,675,o),
(407,661,o),
(345,663,cs),
(287,665,o),
(232,681,o),
(210.087,708.573,cs)
);
},
{
closed = 1;
nodes = (
(502.974,626.556,o),
(418.286,621.456,o),
(396.817,572.815,cs),
(338.689,441.119,o),
(138.756,230.548,o),
(94.561,101.547,cs),
(77.658,52.209,o),
(165.148,64.902,o),
(181.439,112.453,cs),
(211.244,199.452,o),
(411.311,418.881,o),
(481.183,577.185,cs)
);
}
);
width = 600;
}
);
unicode = 122;
},
